<?xml version="1.0" standalone="no"?>
<!DOCTYPE svg PUBLIC "-//W3C//DTD SVG 20010904//EN"
 "http://www.w3.org/TR/2001/REC-SVG-20010904/DTD/svg10.dtd">
<svg version="1.0" xmlns="http://www.w3.org/2000/svg"
 width="1600.000000pt" height="900.000000pt" viewBox="0 0 1600.000000 900.000000"
 preserveAspectRatio="xMidYMid meet">

<g transform="translate(0.000000,900.000000) scale(0.100000,-0.100000)"
fill="#000000" stroke="none">
<path d="M3260 7133 c-1009 -47 -1757 -337 -2200 -852 -138 -160 -272 -396
-334 -586 -68 -209 -109 -517 -90 -673 l9 -73 75 92 c107 130 326 340 460 440
466 348 1010 535 1757 605 211 19 543 30 543 17 0 -5 -12 -20 -26 -34 -82 -76
-235 -353 -330 -594 -62 -161 -224 -651 -224 -681 0 -20 -10 -23 -174 -44
-430 -56 -759 -162 -1011 -328 -38 -25 -113 -89 -165 -141 -120 -121 -163
-199 -168 -308 -4 -69 -3 -74 25 -102 59 -58 147 -53 518 29 121 27 267 58
325 69 123 23 369 55 376 49 8 -8 -135 -328 -212 -478 -215 -412 -459 -672
-781 -835 -250 -125 -470 -171 -773 -162 -151 4 -191 9 -290 35 -64 16 -139
41 -168 56 -28 14 -54 26 -58 26 -19 0 30 -163 76 -256 85 -167 224 -296 425
-394 194 -94 344 -129 580 -137 385 -13 747 99 1079 334 102 73 340 309 431
428 259 339 468 747 657 1280 27 77 52 143 56 146 4 4 113 10 242 14 303 8
419 19 505 45 203 63 365 202 451 387 84 180 64 281 -64 320 -48 15 -91 18
-267 16 -115 -1 -309 -8 -430 -16 -121 -8 -223 -11 -227 -8 -4 3 2 44 13 91
124 525 181 722 265 917 35 81 117 238 133 256 9 9 443 -19 1211 -78 545 -42
1111 -76 1580 -95 338 -14 1084 -19 1335 -10 802 31 1450 162 1890 382 251
126 467 321 558 503 25 51 61 164 55 171 -2 2 -66 -12 -141 -31 -796 -200
-1803 -249 -3237 -155 -168 11 -323 22 -345 25 -22 3 -148 14 -280 25 -283 24
-430 39 -820 87 -159 19 -326 39 -370 44 -44 6 -224 28 -400 49 -935 115
-1559 156 -2045 133z"/>
<path d="M11832 7079 c-161 -19 -307 -78 -429 -173 -125 -98 -162 -158 -328
-536 -42 -96 -105 -240 -140 -320 -95 -215 -191 -438 -300 -690 -53 -124 -105
-243 -115 -265 -10 -22 -45 -103 -78 -180 -126 -294 -233 -541 -242 -560 -21
-43 -359 -834 -510 -1190 -113 -269 -145 -317 -274 -412 -107 -79 -255 -143
-330 -143 -47 0 -92 33 -106 76 -21 63 -7 260 28 384 58 205 133 406 260 700
260 600 246 560 247 725 0 104 -3 127 -23 170 -29 63 -57 93 -107 116 -50 23
-149 25 -230 4 -126 -33 -289 -141 -397 -262 -47 -53 -535 -675 -698 -890 -48
-62 -59 -72 -87 -72 l-32 -1 14 38 c7 20 55 141 105 267 209 523 231 591 229
713 -2 162 -81 220 -275 201 -118 -11 -242 -91 -331 -211 -103 -141 -454 -998
-639 -1562 l-69 -209 -110 -52 c-115 -55 -313 -127 -378 -139 -50 -9 -101 8
-123 42 -50 73 10 346 138 637 115 260 286 665 361 855 47 118 102 258 123
310 48 121 56 202 24 243 -79 100 -372 117 -531 31 -96 -53 -114 -81 -257
-409 -39 -88 -145 -331 -237 -540 -92 -209 -190 -432 -217 -495 -114 -260
-208 -411 -323 -518 -191 -178 -382 -192 -426 -29 -19 72 -4 121 156 507 42
102 96 232 120 290 23 58 65 159 93 225 27 66 98 237 157 380 158 380 186 454
192 507 5 44 3 50 -29 82 -42 42 -90 56 -188 56 -228 -1 -436 -173 -609 -505
-137 -261 -519 -1151 -626 -1455 -49 -140 -96 -342 -102 -435 -7 -108 20 -231
64 -298 35 -51 107 -102 176 -122 123 -36 402 -12 579 51 208 74 455 225 610
372 21 20 40 33 43 31 2 -3 10 -40 16 -83 40 -293 165 -386 465 -346 178 23
501 128 685 221 l36 18 17 -78 c29 -137 109 -201 252 -201 87 0 181 31 245 82
53 43 231 277 1149 1513 106 142 123 160 144 152 12 -5 6 -28 -30 -118 -75
-191 -172 -468 -209 -599 -151 -529 -134 -914 45 -1012 31 -17 49 -19 145 -14
202 10 445 89 694 225 41 23 75 41 76 41 1 0 1 -42 1 -94 -1 -87 1 -96 24
-121 42 -45 73 -56 166 -56 141 -1 148 6 426 396 75 105 147 205 161 224 l26
33 -1 -100 c0 -183 51 -314 166 -428 85 -83 158 -117 287 -134 264 -33 557 22
881 166 167 75 412 221 577 346 35 26 67 48 71 48 4 0 17 -39 29 -87 71 -283
258 -474 516 -528 336 -71 735 57 1081 348 209 175 428 453 561 713 128 249
224 571 264 884 24 188 6 501 -32 546 -12 15 -290 106 -791 260 l-318 97 -142
-71 c-221 -109 -340 -193 -499 -351 -152 -152 -214 -231 -319 -405 -83 -139
-135 -240 -186 -363 -50 -121 -154 -327 -228 -452 -114 -195 -331 -386 -526
-462 -391 -154 -668 -122 -771 87 -27 54 -32 77 -33 137 0 109 24 169 98 242
34 34 196 171 361 306 876 715 1013 830 1166 981 144 143 175 247 96 328 -44
45 -96 67 -208 85 -186 30 -384 17 -523 -35 -165 -62 -260 -159 -912 -930
-137 -163 -268 -318 -291 -345 l-43 -50 18 40 c18 41 23 51 152 300 194 375
380 734 463 895 49 96 125 244 168 328 44 83 114 221 158 305 43 83 125 242
181 352 56 110 133 259 170 330 269 519 419 824 425 868 23 151 -172 255 -423
226z m2059 -2760 c197 -59 258 -404 142 -804 -126 -439 -428 -854 -718 -991
-53 -25 -72 -29 -157 -29 -91 0 -99 2 -140 30 -52 37 -102 108 -124 178 -25
79 -30 283 -10 403 57 342 241 717 470 961 199 211 383 298 537 252z"/>
<path d="M14080 6381 c-109 -35 -170 -115 -170 -224 0 -66 37 -144 85 -181
l34 -26 -25 -92 c-63 -236 -144 -425 -209 -488 -46 -45 -92 -46 -136 -4 -54
51 -119 214 -163 408 l-16 68 40 40 c136 136 45 358 -148 358 -176 0 -267
-213 -148 -348 17 -19 50 -44 74 -54 34 -16 42 -24 42 -46 0 -33 29 -774 33
-820 l2 -34 240 -78 c581 -190 1202 -390 1211 -390 5 1 128 156 273 345 l264
343 72 -5 c88 -7 128 9 185 75 40 45 40 45 40 130 0 82 -1 86 -35 128 -85 103
-218 112 -309 20 -54 -54 -74 -117 -58 -184 l12 -47 -66 -62 c-81 -75 -200
-162 -274 -199 -76 -39 -144 -40 -173 -2 -54 72 -18 289 102 608 l21 55 45 2
c161 6 264 180 194 328 -38 82 -110 125 -206 125 -177 0 -276 -174 -192 -337
l31 -60 -47 -84 c-132 -232 -271 -396 -357 -420 -88 -24 -150 23 -185 140 -20
64 -24 286 -10 454 l9 98 54 24 c30 13 66 36 80 52 105 111 75 296 -58 364
-44 23 -120 32 -158 20z"/>
</g>
</svg>
