<?xml version="1.0" standalone="no"?>
<!DOCTYPE svg PUBLIC "-//W3C//DTD SVG 20010904//EN"
 "http://www.w3.org/TR/2001/REC-SVG-20010904/DTD/svg10.dtd">
<svg version="1.0" xmlns="http://www.w3.org/2000/svg"
 width="512.000000pt" height="512.000000pt" viewBox="0 0 512.000000 512.000000"
 preserveAspectRatio="xMidYMid meet">

<g transform="translate(0.000000,512.000000) scale(0.100000,-0.100000)"
fill="#000000" stroke="none">
<path d="M2428 5110 c-578 -73 -1003 -576 -975 -1154 19 -381 215 -706 547
-906 286 -172 665 -199 978 -70 611 251 870 970 560 1550 -150 280 -429 493
-736 560 -104 23 -279 32 -374 20z m320 -315 c197 -46 377 -174 490 -348 93
-142 127 -262 126 -442 0 -151 -19 -237 -83 -362 l-38 -77 -28 45 c-40 63
-150 174 -218 221 l-57 39 20 39 c138 271 -27 597 -330 651 -278 49 -539 -191
-517 -477 4 -61 22 -119 63 -209 2 -6 -13 -19 -33 -30 -53 -28 -186 -157 -229
-223 l-37 -55 -39 76 c-65 130 -83 210 -82 372 1 125 4 149 28 225 66 201 184
354 359 459 79 48 175 86 252 100 33 6 71 13 85 15 43 8 202 -4 268 -19z
m-109 -554 c121 -87 70 -271 -76 -271 -138 0 -203 159 -105 253 51 49 128 57
181 18z m13 -585 c96 -21 174 -63 243 -131 64 -63 123 -161 113 -187 -10 -24
-167 -96 -259 -118 -102 -24 -265 -26 -359 -5 -128 30 -280 102 -280 134 0 31
69 135 125 187 64 59 143 100 229 119 80 17 107 18 188 1z"/>
<path d="M95 2726 c-37 -17 -70 -52 -84 -89 -7 -19 -11 -216 -11 -590 0 -528
1 -564 19 -597 39 -73 46 -75 303 -78 255 -3 269 -1 318 55 54 61 38 165 -32
215 -30 21 -46 23 -170 26 l-137 4 -3 483 c-3 471 -4 484 -24 511 -47 64 -119
88 -179 60z"/>
<path d="M1215 2726 c-142 -28 -261 -91 -361 -190 -173 -174 -239 -420 -178
-661 45 -174 191 -352 354 -433 107 -52 190 -72 306 -72 381 0 684 303 684
684 0 116 -20 199 -72 306 -81 164 -259 309 -434 354 -88 23 -217 28 -299 12z
m197 -297 c118 -25 220 -105 274 -214 26 -54 29 -70 29 -160 0 -89 -3 -107
-28 -160 -37 -79 -114 -156 -191 -192 -54 -25 -72 -28 -161 -28 -90 0 -106 3
-160 29 -235 116 -295 416 -120 604 98 106 225 149 357 121z"/>
<path d="M2685 2726 c-411 -80 -659 -502 -525 -891 37 -106 82 -178 170 -265
68 -69 102 -94 170 -128 101 -49 190 -72 285 -72 l70 0 -4 -495 c-1 -273 0
-507 3 -520 10 -41 64 -94 107 -105 63 -17 104 0 197 85 46 42 88 75 93 73 6
-2 65 -86 132 -188 114 -173 125 -186 168 -204 32 -13 58 -17 81 -12 35 6 529
324 580 373 34 33 52 84 44 128 -4 18 -61 118 -128 221 -67 103 -118 189 -113
191 6 2 57 27 115 56 97 48 107 55 128 99 19 37 22 56 17 88 -12 71 -49 98
-258 186 -171 72 -187 80 -180 99 4 11 9 281 10 600 4 661 8 628 -80 673 -56
29 -112 23 -159 -16 -59 -50 -58 -42 -58 -626 l0 -534 -118 51 -119 50 32 63
c44 87 69 200 70 311 0 77 -3 96 -21 120 -41 57 -70 63 -282 63 -216 0 -244
-6 -283 -61 -32 -45 -33 -125 -3 -165 43 -59 68 -69 175 -72 54 -2 99 -7 99
-10 -1 -17 -57 -116 -70 -123 -8 -4 -32 -11 -53 -14 -26 -4 -51 -19 -79 -47
l-40 -40 -77 4 c-180 11 -319 140 -352 326 -44 247 196 481 444 432 34 -6 91
-27 128 -46 78 -40 136 -45 187 -14 45 28 76 97 67 152 -24 137 -336 249 -570
204z m774 -1470 c154 -66 281 -122 281 -125 0 -4 -16 -15 -35 -25 -36 -20 -75
-84 -75 -124 0 -38 23 -81 142 -262 63 -96 117 -180 121 -186 7 -12 -5 -20
-161 -121 l-82 -53 -133 202 c-111 169 -140 206 -171 221 -60 28 -123 18 -178
-31 -17 -14 -18 -5 -18 185 0 230 10 445 20 441 4 -2 134 -57 289 -122z"/>
<path d="M4177 2725 c-21 -7 -48 -21 -59 -32 -48 -42 -48 -47 -48 -645 0 -516
1 -566 18 -598 50 -100 197 -108 259 -13 16 24 19 61 23 343 l5 317 230 -334
c259 -376 272 -390 365 -381 64 6 113 43 135 103 16 42 17 86 9 599 -9 537
-10 555 -30 582 -37 50 -72 69 -124 69 -52 0 -87 -19 -124 -69 -20 -26 -21
-40 -21 -347 0 -175 -2 -319 -5 -319 -3 0 -95 131 -205 291 -110 160 -219 318
-242 350 -60 82 -117 108 -186 84z"/>
</g>
</svg>
