<?xml version="1.0" standalone="no"?>
<!DOCTYPE svg PUBLIC "-//W3C//DTD SVG 20010904//EN"
 "http://www.w3.org/TR/2001/REC-SVG-20010904/DTD/svg10.dtd">
<svg version="1.0" xmlns="http://www.w3.org/2000/svg"
 width="512.000000pt" height="512.000000pt" viewBox="0 0 512.000000 512.000000"
 preserveAspectRatio="xMidYMid meet">

<g transform="translate(0.000000,512.000000) scale(0.100000,-0.100000)"
fill="#000000" stroke="none">
<path d="M95 4907 c-65 -30 -106 -110 -90 -174 18 -75 77 -113 174 -113 l60 0
3 -409 c3 -396 4 -410 24 -438 47 -64 41 -63 554 -63 435 0 468 1 500 19 19
10 43 32 53 49 10 17 88 188 173 379 165 373 172 398 134 460 -43 71 -15 67
-609 73 l-535 5 -8 31 c-15 58 -70 125 -127 158 -50 27 -64 30 -165 33 -80 3
-120 0 -141 -10z m1218 -534 c-4 -10 -41 -94 -83 -188 l-76 -170 -307 -3 -307
-2 0 190 0 190 390 0 c367 0 389 -1 383 -17z"/>
<path d="M2130 4723 c-19 -10 -45 -33 -57 -52 l-23 -34 0 -532 0 -532 23 -34
c44 -66 64 -70 322 -67 212 4 235 6 288 27 67 26 163 110 201 176 82 139 70
319 -28 453 l-44 59 20 59 c28 83 22 197 -15 277 -35 78 -118 158 -194 188
-53 21 -77 24 -258 27 -176 2 -204 1 -235 -15z m397 -305 c33 -30 31 -80 -3
-107 -22 -17 -41 -21 -100 -21 l-74 0 0 75 0 75 77 0 c65 0 80 -3 100 -22z
m72 -454 c57 -47 50 -137 -13 -175 -25 -15 -51 -19 -133 -19 l-103 0 0 110 0
110 109 0 c103 0 111 -2 140 -26z"/>
<path d="M3170 4722 c-19 -9 -45 -32 -57 -51 -23 -34 -23 -35 -23 -426 0 -431
3 -454 62 -547 38 -60 119 -135 184 -170 240 -130 562 -31 681 210 l38 76 3
411 3 411 -23 34 c-62 93 -182 91 -252 -3 -20 -27 -21 -43 -26 -411 -6 -435
-2 -415 -91 -460 -92 -45 -198 -25 -254 48 l-24 32 -3 381 c-3 369 -4 382 -24
410 -51 69 -125 90 -194 55z"/>
<path d="M4279 4720 c-38 -20 -79 -87 -79 -128 0 -39 21 -76 166 -298 l144
-220 0 -245 c0 -234 1 -246 23 -283 30 -53 79 -78 140 -73 57 5 95 30 119 78
16 30 18 65 18 275 l0 241 151 232 c90 138 152 245 156 265 17 104 -91 199
-190 167 -47 -16 -72 -45 -175 -203 l-90 -138 -101 154 c-55 84 -112 161 -128
171 -41 27 -110 29 -154 5z"/>
<path d="M410 3572 c-47 -25 -83 -93 -76 -146 9 -77 71 -131 149 -131 89 0
147 61 147 152 0 108 -122 176 -220 125z"/>
<path d="M1090 3572 c-47 -25 -83 -93 -76 -146 9 -77 71 -131 149 -131 89 0
147 61 147 152 0 108 -122 176 -220 125z"/>
<path d="M2370 3104 c-112 -30 -223 -121 -276 -226 -50 -98 -54 -140 -54 -596
l0 -422 -53 35 c-143 95 -305 109 -454 38 -65 -30 -155 -111 -190 -170 -79
-135 -83 -316 -11 -446 31 -56 425 -612 494 -699 271 -337 743 -490 1167 -378
393 104 704 416 813 815 26 95 28 114 32 375 4 303 0 342 -51 450 -38 82 -149
195 -227 233 -103 49 -155 57 -396 57 l-223 0 -3 308 -3 308 -37 75 c-100 202
-314 300 -528 243z m197 -304 c69 -42 67 -34 73 -451 5 -362 6 -379 26 -405
11 -15 33 -37 48 -48 26 -20 44 -21 349 -26 356 -6 368 -8 424 -74 50 -59 53
-79 53 -321 0 -314 -27 -430 -141 -600 -291 -435 -908 -498 -1281 -131 -32 30
-145 178 -251 328 -292 411 -287 403 -287 450 0 52 25 103 63 130 42 30 124
31 164 2 15 -11 84 -99 153 -194 69 -95 137 -182 151 -193 63 -46 159 -26 207
43 l22 33 0 674 c0 724 -1 713 51 763 13 12 33 26 44 30 36 15 99 11 132 -10z"/>
</g>
</svg>
